<?xml version="1.0" encoding="UTF-8" standalone="no"?>
<svg
   xmlns:dc="http://purl.org/dc/elements/1.1/"
   xmlns:cc="http://creativecommons.org/ns#"
   xmlns:rdf="http://www.w3.org/1999/02/22-rdf-syntax-ns#"
   xmlns:svg="http://www.w3.org/2000/svg"
   xmlns="http://www.w3.org/2000/svg"
   xmlns:xlink="http://www.w3.org/1999/xlink"
   xmlns:sodipodi="http://sodipodi.sourceforge.net/DTD/sodipodi-0.dtd"
   xmlns:inkscape="http://www.inkscape.org/namespaces/inkscape"
   height="660"
   width="600"
   version="1.0"
   id="svg2"
   sodipodi:version="0.32"
   inkscape:version="0.46"
   sodipodi:docname="Cumming of Altyre arms.svg"
   sodipodi:docbase="D:\Mes documents\Renaud-Notre Lapin"
   inkscape:export-filename="/Users/olivier/Desktop/Blason Rouge/Blason_Vide_3D.png"
   inkscape:export-xdpi="144"
   inkscape:export-ydpi="144"
   inkscape:output_extension="org.inkscape.output.svg.inkscape">
  <metadata
     id="metadata49">
    <rdf:RDF>
      <cc:Work
         rdf:about="">
        <dc:format>image/svg+xml</dc:format>
        <dc:type
           rdf:resource="http://purl.org/dc/dcmitype/StillImage" />
        <dc:title>Gabarit d'un blason en pointe pour le projet Blasons de Wikipédia</dc:title>
        <dc:date>03-AUG-2006</dc:date>
        <dc:creator>
          <cc:Agent>
            <dc:title>Jérôme BLUM (wagner51)</dc:title>
          </cc:Agent>
        </dc:creator>
        <cc:license
           rdf:resource="http://web.resource.org/cc/PublicDomain" />
        <dc:language>fr</dc:language>
        <dc:subject>
          <rdf:Bag>
            <rdf:li>gabarit modèle blason projet wikipédia</rdf:li>
          </rdf:Bag>
        </dc:subject>
      </cc:Work>
      <cc:License
         rdf:about="http://web.resource.org/cc/PublicDomain">
        <cc:permits
           rdf:resource="http://web.resource.org/cc/Reproduction" />
        <cc:permits
           rdf:resource="http://web.resource.org/cc/Distribution" />
        <cc:permits
           rdf:resource="http://web.resource.org/cc/DerivativeWorks" />
      </cc:License>
    </rdf:RDF>
  </metadata>
  <sodipodi:namedview
     inkscape:window-height="667"
     inkscape:window-width="1024"
     inkscape:pageshadow="2"
     inkscape:pageopacity="0.0"
     guidetolerance="10.0"
     gridtolerance="10.0"
     objecttolerance="10.0"
     borderopacity="1.0"
     bordercolor="#666666"
     pagecolor="#ffffff"
     id="base"
     showgrid="false"
     height="660px"
     inkscape:zoom="0.5"
     inkscape:cx="9.13277"
     inkscape:cy="244.19048"
     inkscape:window-x="0"
     inkscape:window-y="0"
     inkscape:current-layer="layer4">
    <inkscape:grid
       type="xygrid"
       id="grid4817" />
  </sodipodi:namedview>
  <desc
     id="desc4">Flag of Canton of Valais (Wallis)</desc>
  <defs
     id="defs6">
    <inkscape:perspective
       sodipodi:type="inkscape:persp3d"
       inkscape:vp_x="0 : 330 : 1"
       inkscape:vp_y="0 : 1000 : 0"
       inkscape:vp_z="600 : 330 : 1"
       inkscape:persp3d-origin="300 : 220 : 1"
       id="perspective2511" />
    <linearGradient
       id="linearGradient2893">
      <stop
         style="stop-color:white;stop-opacity:0.3137255;"
         offset="0"
         id="stop2895" />
      <stop
         id="stop2897"
         offset="0.19"
         style="stop-color:white;stop-opacity:0.25098041;" />
      <stop
         style="stop-color:#6b6b6b;stop-opacity:0.1254902;"
         offset="0.60000002"
         id="stop2901" />
      <stop
         style="stop-color:black;stop-opacity:0.1254902;"
         offset="1"
         id="stop2899" />
    </linearGradient>
    <linearGradient
       id="linearGradient2885">
      <stop
         id="stop2887"
         offset="0"
         style="stop-color:white;stop-opacity:1;" />
      <stop
         style="stop-color:white;stop-opacity:1;"
         offset="0.22857143"
         id="stop2891" />
      <stop
         id="stop2889"
         offset="1"
         style="stop-color:black;stop-opacity:1;" />
    </linearGradient>
    <linearGradient
       id="linearGradient2955">
      <stop
         id="stop2867"
         offset="0"
         style="stop-color:#fd0000;stop-opacity:1;" />
      <stop
         style="stop-color:#e77275;stop-opacity:0.65882355;"
         offset="0.5"
         id="stop2873" />
      <stop
         style="stop-color:black;stop-opacity:0.32291666;"
         offset="1"
         id="stop2959" />
    </linearGradient>
    <radialGradient
       inkscape:collect="always"
       xlink:href="#linearGradient2955"
       id="radialGradient2961"
       cx="225.52438"
       cy="218.90099"
       fx="225.52438"
       fy="218.90099"
       r="300"
       gradientTransform="matrix(-4.167939e-4,2.182867,-1.884232,-3.599562e-4,615.5972,-289.1214)"
       gradientUnits="userSpaceOnUse" />
    <polygon
       id="star"
       transform="scale(53,53)"
       points="0,-1 0.58778525,0.80901699 -0.95105652,-0.30901699 0.95105652,-0.30901699 -0.58778525,0.80901699 0,-1 " />
    <clipPath
       id="clip">
      <path
         d="M 0,-200 L 0,600 L 300,600 L 300,-200 L 0,-200 z "
         id="path10" />
    </clipPath>
    <radialGradient
       inkscape:collect="always"
       xlink:href="#linearGradient2955"
       id="radialGradient1911"
       gradientUnits="userSpaceOnUse"
       gradientTransform="matrix(-4.167939e-4,2.182867,-1.884232,-3.599562e-4,615.5972,-289.1214)"
       cx="225.52438"
       cy="218.90099"
       fx="225.52438"
       fy="218.90099"
       r="300" />
    <radialGradient
       inkscape:collect="always"
       xlink:href="#linearGradient2955"
       id="radialGradient2865"
       gradientUnits="userSpaceOnUse"
       gradientTransform="matrix(0,1.748721,-1.593162,-1.049767e-7,551.7876,-191.2898)"
       cx="225.52438"
       cy="218.90099"
       fx="225.52438"
       fy="218.90099"
       r="300" />
    <radialGradient
       inkscape:collect="always"
       xlink:href="#linearGradient2955"
       id="radialGradient2871"
       gradientUnits="userSpaceOnUse"
       gradientTransform="matrix(0,1.386237,-1.323286,-5.741131e-8,-158.0823,-109.5408)"
       cx="225.52438"
       cy="218.90099"
       fx="225.52438"
       fy="218.90099"
       r="300" />
    <radialGradient
       inkscape:collect="always"
       xlink:href="#linearGradient2893"
       id="radialGradient3163"
       gradientUnits="userSpaceOnUse"
       gradientTransform="matrix(1.353218,0,0,1.348928,-77.62935,-85.74693)"
       cx="221.44487"
       cy="226.33101"
       fx="221.44487"
       fy="226.33101"
       r="300" />
    <inkscape:perspective
       id="perspective3998"
       inkscape:persp3d-origin="151 : 84 : 1"
       inkscape:vp_z="302 : 126 : 1"
       inkscape:vp_y="0 : 1000 : 0"
       inkscape:vp_x="0 : 126 : 1"
       sodipodi:type="inkscape:persp3d" />
  </defs>
  <g
     inkscape:groupmode="layer"
     id="layer3"
     inkscape:label="Fond écu"
     style="display:inline"
     sodipodi:insensitive="true">
    <path
       id="path2855"
       style="fill:#0c0594;fill-opacity:1;fill-rule:evenodd;stroke:none;stroke-width:1px;stroke-linecap:butt;stroke-linejoin:miter;stroke-opacity:1"
       d="M 300,658.5 C 300,658.5 598.50001,546.17969 598.50001,260.72817 C 598.50001,-24.723354 598.50001,2.1764765 598.50001,2.1764765 L 1.5,2.1764765 L 1.5,260.72817 C 1.5,546.17969 300,658.5 300,658.5 z"
       sodipodi:nodetypes="cccccc" />
  </g>
  <g
     inkscape:groupmode="layer"
     id="layer4"
     inkscape:label="Meubles">
    <g
       id="g2028"
       transform="matrix(0.7027613,0,0,0.7027613,16.590818,-54.325417)"
       style="fill:#fced1e;fill-opacity:1">
      <path
         d="M 225.38606,193.67433 C 217.92104,194.39212 203.85236,197.26328 203.85236,198.12462 C 203.85236,198.41174 206.14929,206.88166 208.87689,216.93072 C 211.60449,226.83622 215.48056,244.06318 217.20325,255.11715 L 220.64865,275.21527 L 226.53452,275.64594 L 232.56396,276.07662 L 232.56396,234.4448 C 232.56396,211.47552 232.13329,192.81298 231.55905,192.95654 C 230.84126,192.95654 228.11366,193.38721 225.38606,193.67433 z"
         style="fill:#fced1e;fill-opacity:1;stroke:none"
         id="path1940" />
      <path
         d="M 235.43512,234.58836 L 235.43512,275.93306 L 241.75167,275.93306 L 247.92467,275.93306 L 248.92957,267.6067 C 250.93938,249.94906 258.11728,218.50986 264.43384,199.27309 C 265.00807,197.55039 253.66699,194.53567 243.76148,193.81788 L 235.43512,193.10009 L 235.43512,234.58836 z"
         style="fill:#fced1e;fill-opacity:1;stroke:none"
         id="path1942" />
      <path
         d="M 185.62049,204.87185 C 179.87817,207.45589 175.14076,210.1835 175.14076,210.61417 C 175.14076,211.1884 177.29413,214.20312 180.02173,217.50495 C 182.60578,220.80679 186.33828,226.40555 188.06098,229.9945 C 189.78368,233.58345 194.80821,239.61289 199.2585,243.63251 C 203.56524,247.50858 209.02045,253.2509 211.31738,256.55273 L 215.62412,262.29505 L 214.61921,256.55273 C 212.32228,242.48405 207.72843,222.09881 204.71371,211.76263 C 202.12966,203.29271 200.69408,200.42155 198.68427,200.27799 C 197.24869,199.99088 191.21926,202.14425 185.62049,204.87185 z"
         style="fill:#fced1e;fill-opacity:1;stroke:none"
         id="path1944" />
      <path
         d="M 263.57249,211.61908 C 260.41421,222.38593 255.6768,243.77607 253.52343,257.27052 L 252.80564,262.29505 L 255.24612,258.7061 C 259.26575,252.82022 271.46818,240.18712 274.05222,239.32577 C 275.34424,239.03865 277.78473,235.4497 279.65098,231.43008 C 281.37368,227.55401 285.10619,221.38102 287.83379,217.79207 C 290.56139,214.20312 292.85832,210.90129 292.85832,210.61417 C 292.85832,209.32215 272.32953,199.84732 269.60192,199.84732 C 267.73567,199.84732 266.30009,202.71848 263.57249,211.61908 z"
         style="fill:#fced1e;fill-opacity:1;stroke:none"
         id="path1946" />
      <path
         d="M 156.04755,237.74663 C 138.1028,242.77116 128.48441,263.44351 132.79115,287.99193 C 134.80096,299.18946 137.09789,305.36245 147.14695,326.75259 C 154.18129,341.96974 155.04264,348.42985 150.01811,348.42985 C 148.43897,348.42985 146.57272,346.99427 145.71137,345.12802 C 143.84512,340.96483 142.84021,341.10839 140.68684,346.27648 C 139.25126,349.86543 139.25126,351.15745 141.26107,354.17217 C 145.99849,361.49363 157.77024,359.91449 160.6414,351.73168 C 163.22545,344.41023 162.50766,338.38079 156.47822,317.70844 C 147.29051,285.83856 147.29051,271.48276 156.62178,260.85947 C 168.53709,247.36502 193.08551,250.95397 205.00082,268.03737 C 209.30756,274.35392 211.17382,275.7895 214.33209,275.93306 C 217.92104,275.93306 218.20816,275.50239 217.49037,272.63123 C 213.32719,259.42389 198.97139,243.48895 187.19963,239.46933 C 177.43769,236.16749 164.23035,235.4497 156.04755,237.74663 z"
         style="fill:#fced1e;fill-opacity:1;stroke:none"
         id="path1948" />
      <path
         d="M 288.69514,237.1724 C 275.77492,239.9 262.13691,251.38464 254.95901,265.74044 C 250.22159,274.7846 250.36515,275.93306 255.24612,275.93306 C 258.26084,275.7895 260.1271,274.21036 264.14672,268.32449 C 275.4878,251.67176 298.88776,247.50858 311.80798,259.71101 C 321.71348,269.18583 322.28771,284.97721 313.67423,314.69372 C 306.927,337.51944 306.06566,345.55869 309.36749,352.44947 C 311.23374,356.4691 312.95644,357.90468 316.68895,358.62247 C 323.57973,359.91449 328.74782,356.32554 328.74782,350.15255 C 328.74782,345.98936 326.59445,340.3906 325.58954,341.96974 C 325.30243,342.40041 324.44108,343.97955 323.57973,345.55869 C 322.71838,347.13783 320.70857,348.42985 319.27299,348.42985 C 314.24846,348.42985 315.39693,341.68262 323.57973,323.88143 C 335.78216,297.17964 337.79197,289.57107 337.07418,274.06681 C 336.21284,255.83494 330.75763,246.073 317.5503,239.46933 C 311.80798,236.59817 297.30862,235.4497 288.69514,237.1724 z"
         style="fill:#fced1e;fill-opacity:1;stroke:none"
         id="path1950" />
      <path
         d="M 163.65612,258.99322 C 156.1911,264.1613 153.4635,268.89872 152.60215,278.22999 C 151.88436,286.84347 153.4635,295.31339 161.35919,324.02499 C 165.80949,339.95993 166.09661,348.28629 162.22054,354.60284 C 154.89908,366.66172 137.09789,362.64209 137.52856,349.00408 C 137.52856,346.5636 138.67703,343.1182 139.96905,341.10839 C 142.55309,337.08877 142.55309,337.08877 136.66722,339.24214 C 130.06355,341.53907 127.33595,346.70715 128.19729,355.32063 C 128.77153,361.35007 129.77643,363.35988 133.79606,367.09239 C 143.41444,375.99299 159.34938,375.13164 168.39353,365.08258 C 178.01192,354.45929 178.29904,345.41513 170.5469,303.63975 C 167.10151,285.12077 167.8193,278.80422 173.70518,272.77478 C 178.87327,267.75025 184.18491,267.6067 191.21926,272.34411 C 196.67446,276.07662 205.28794,277.22508 205.28794,274.21036 C 205.28794,270.62141 197.82292,263.1564 190.64502,259.56745 C 180.88308,254.68648 170.40335,254.54292 163.65612,258.99322 z"
         style="fill:#fced1e;fill-opacity:1;stroke:none"
         id="path1952" />
      <path
         d="M 277.06694,260.4288 C 272.7602,263.01284 267.73567,267.46314 265.86942,270.19074 L 262.42402,275.21527 L 267.44855,275.64594 C 270.89395,275.93306 274.05222,274.92815 277.78473,272.48767 C 285.10619,267.46314 290.56139,267.6067 295.87304,272.91834 C 299.7491,276.79441 300.03622,277.94287 300.03622,287.84837 C 300.03622,293.73425 298.7442,304.93178 297.0215,312.68391 C 295.44236,320.5796 294.00678,333.06914 293.86323,340.53416 C 293.71967,353.16726 294.00678,354.7464 297.59573,361.06295 C 303.33805,370.68134 311.95153,374.55741 324.15396,372.69115 C 333.19812,371.39913 340.0889,364.79546 341.23737,356.75621 C 342.38583,348.42985 339.51467,342.1133 333.62879,339.67281 C 327.16868,336.94521 326.59445,337.08877 329.32205,341.25195 C 332.48033,345.98936 332.19321,353.88505 328.89138,357.90468 C 326.73801,360.63228 324.7282,361.35007 319.41655,361.35007 C 313.81779,361.35007 312.09509,360.63228 309.36749,357.33045 C 302.47671,349.43476 302.76382,343.97955 312.09509,308.23361 C 317.5503,286.98703 318.26809,279.37845 315.68404,271.48276 C 312.23865,261.29014 304.1994,255.83494 292.5712,255.83494 C 286.39821,255.83494 283.23993,256.83985 277.06694,260.4288 z"
         style="fill:#fced1e;fill-opacity:1;stroke:none"
         id="path1954" />
      <path
         d="M 191.50637,282.24961 C 191.0757,283.39808 190.93214,286.69991 191.21926,289.71463 L 191.64993,295.31339 L 233.71242,295.74406 L 275.63136,296.03118 L 277.06694,292.44223 C 277.78473,290.43242 278.07185,286.98703 277.64117,284.54654 L 276.77982,280.2398 L 234.43021,280.2398 C 199.68918,280.2398 192.0806,280.52692 191.50637,282.24961 z"
         style="fill:#fced1e;fill-opacity:1;stroke:none"
         id="path1956" />
      <path
         d="M 255.38968,300.33792 C 255.24612,300.76859 255.24612,301.48638 255.38968,302.06062 C 259.55286,328.47529 259.98354,335.50963 259.98354,359.91449 C 259.98354,376.2801 259.12219,391.92792 257.97373,398.96227 L 255.96391,410.87758 L 264.14672,410.87758 L 272.32953,410.87758 L 275.4878,400.11073 C 283.67061,372.69115 283.23993,341.68262 274.05222,310.09986 L 271.32462,300.62504 L 263.42893,300.0508 C 259.12219,299.90725 255.38968,299.90725 255.38968,300.33792 z"
         style="fill:#fced1e;fill-opacity:1;stroke:none"
         id="path5496" />
      <path
         d="M 194.66465,307.37226 C 189.20944,325.74769 187.48675,338.52435 187.48675,359.91449 C 187.48675,377.71568 188.06098,383.60156 190.78858,393.65062 C 195.38244,410.87758 195.38244,410.87758 204.57015,410.87758 C 212.32228,410.87758 212.32228,410.87758 211.74805,406.85796 C 208.87689,390.92302 208.1591,381.30463 208.1591,359.77093 C 208.1591,337.95012 210.74314,309.38207 213.32719,302.63485 C 214.04498,300.62504 213.04007,300.33792 205.4315,300.33792 L 196.81802,300.33792 L 194.66465,307.37226 z"
         style="fill:#fced1e;fill-opacity:1;stroke:none"
         id="path5498" />
      <path
         d="M 216.19835,303.63975 C 210.8867,324.74278 209.30756,372.40404 213.18363,395.80399 C 214.33209,402.83833 215.337,409.15488 215.337,409.72912 C 215.337,410.44691 219.21307,410.87758 223.95048,410.87758 L 232.56396,410.87758 L 232.56396,355.60775 L 232.56396,300.33792 L 224.81183,300.33792 C 217.92104,300.33792 217.0597,300.76859 216.19835,303.63975 z"
         style="fill:#fced1e;fill-opacity:1;stroke:none"
         id="path1962" />
      <path
         d="M 235.43512,355.60775 L 235.43512,410.87758 L 244.0486,410.87758 C 252.51852,410.87758 252.51852,410.87758 253.23631,406.14017 C 253.66699,403.69968 254.67189,397.67024 255.53324,393.07639 C 257.83017,379.86905 257.25594,335.50963 254.81545,319.28758 C 251.51362,299.18946 252.23141,300.33792 243.18725,300.33792 L 235.43512,300.33792 L 235.43512,355.60775 z"
         style="fill:#fced1e;fill-opacity:1;stroke:none"
         id="path1964" />
      <path
         d="M 192.22416,416.18923 C 191.36281,417.05057 190.93214,420.63952 191.21926,424.08492 L 191.64993,430.25791 L 233.71242,430.68858 L 275.63136,430.9757 L 277.2105,427.09963 C 278.07185,424.65915 278.2154,421.50087 277.49761,418.77327 L 276.20559,414.46653 L 234.86089,414.46653 C 205.00082,414.46653 193.22907,414.8972 192.22416,416.18923 z"
         style="fill:#fced1e;fill-opacity:1;stroke:none"
         id="path1966" />
      <path
         d="M 195.23888,442.02967 C 192.94195,450.64315 186.05117,466.43453 179.73462,477.48849 C 177.15057,482.08235 175.28432,486.53265 175.42788,487.25044 C 176.00211,488.82957 192.94195,496.43815 197.39225,497.2995 C 199.68918,497.58661 200.69408,496.29459 202.84745,489.83448 C 206.72352,478.06272 210.59959,458.96951 211.60449,446.33641 L 212.6094,435.28244 L 204.85727,435.28244 L 197.10513,435.28244 L 195.23888,442.02967 z"
         style="fill:#fced1e;fill-opacity:1;stroke:none"
         id="path1968" />
      <path
         d="M 214.61921,445.61862 C 213.32719,460.11797 210.02535,478.06272 206.57996,489.26025 C 205.00082,494.42834 203.85236,499.02219 204.28303,499.30931 C 204.85727,500.0271 217.49037,502.18047 226.53452,503.18537 L 232.56396,503.90316 L 232.56396,469.5928 L 232.56396,435.28244 L 224.09404,435.28244 L 215.62412,435.28244 L 214.61921,445.61862 z"
         style="fill:#fced1e;fill-opacity:1;stroke:none"
         id="path5504" />
      <path
         d="M 235.43512,469.73636 L 235.43512,504.19028 L 241.60811,503.32893 C 252.80564,501.74979 263.14181,499.88354 263.71605,499.30931 C 264.14672,499.02219 262.99826,493.99766 261.41912,488.11178 C 257.54305,474.47377 254.09766,455.95479 254.09766,449.49468 C 254.09766,446.62352 253.66699,442.17322 253.23631,439.73274 C 252.37496,435.426 252.23141,435.28244 243.90504,435.28244 L 235.43512,435.28244 L 235.43512,469.73636 z"
         style="fill:#fced1e;fill-opacity:1;stroke:none"
         id="path5506" />
      <path
         d="M 256.39459,444.90083 C 257.39949,456.9597 261.84979,479.78542 265.43874,489.97804 C 268.45346,498.87863 268.3099,498.87863 283.67061,492.41852 L 294.00678,488.11178 L 285.68042,472.17685 C 281.08656,463.27625 275.91848,451.36094 274.05222,445.61862 L 270.75039,435.28244 L 263.14181,435.28244 L 255.6768,435.28244 L 256.39459,444.90083 z"
         style="fill:#fced1e;fill-opacity:1;stroke:none"
         id="path5508" />
    </g>
    <g
       id="g6280"
       transform="matrix(0.7027613,0,0,0.7027613,259.56189,-54.325417)"
       style="fill:#fced1e;fill-opacity:1">
      <path
         d="M 225.38606,193.67433 C 217.92104,194.39212 203.85236,197.26328 203.85236,198.12462 C 203.85236,198.41174 206.14929,206.88166 208.87689,216.93072 C 211.60449,226.83622 215.48056,244.06318 217.20325,255.11715 L 220.64865,275.21527 L 226.53452,275.64594 L 232.56396,276.07662 L 232.56396,234.4448 C 232.56396,211.47552 232.13329,192.81298 231.55905,192.95654 C 230.84126,192.95654 228.11366,193.38721 225.38606,193.67433 z"
         style="fill:#fced1e;fill-opacity:1;stroke:none"
         id="path6282" />
      <path
         d="M 235.43512,234.58836 L 235.43512,275.93306 L 241.75167,275.93306 L 247.92467,275.93306 L 248.92957,267.6067 C 250.93938,249.94906 258.11728,218.50986 264.43384,199.27309 C 265.00807,197.55039 253.66699,194.53567 243.76148,193.81788 L 235.43512,193.10009 L 235.43512,234.58836 z"
         style="fill:#fced1e;fill-opacity:1;stroke:none"
         id="path6284" />
      <path
         d="M 185.62049,204.87185 C 179.87817,207.45589 175.14076,210.1835 175.14076,210.61417 C 175.14076,211.1884 177.29413,214.20312 180.02173,217.50495 C 182.60578,220.80679 186.33828,226.40555 188.06098,229.9945 C 189.78368,233.58345 194.80821,239.61289 199.2585,243.63251 C 203.56524,247.50858 209.02045,253.2509 211.31738,256.55273 L 215.62412,262.29505 L 214.61921,256.55273 C 212.32228,242.48405 207.72843,222.09881 204.71371,211.76263 C 202.12966,203.29271 200.69408,200.42155 198.68427,200.27799 C 197.24869,199.99088 191.21926,202.14425 185.62049,204.87185 z"
         style="fill:#fced1e;fill-opacity:1;stroke:none"
         id="path6286" />
      <path
         d="M 263.57249,211.61908 C 260.41421,222.38593 255.6768,243.77607 253.52343,257.27052 L 252.80564,262.29505 L 255.24612,258.7061 C 259.26575,252.82022 271.46818,240.18712 274.05222,239.32577 C 275.34424,239.03865 277.78473,235.4497 279.65098,231.43008 C 281.37368,227.55401 285.10619,221.38102 287.83379,217.79207 C 290.56139,214.20312 292.85832,210.90129 292.85832,210.61417 C 292.85832,209.32215 272.32953,199.84732 269.60192,199.84732 C 267.73567,199.84732 266.30009,202.71848 263.57249,211.61908 z"
         style="fill:#fced1e;fill-opacity:1;stroke:none"
         id="path6288" />
      <path
         d="M 156.04755,237.74663 C 138.1028,242.77116 128.48441,263.44351 132.79115,287.99193 C 134.80096,299.18946 137.09789,305.36245 147.14695,326.75259 C 154.18129,341.96974 155.04264,348.42985 150.01811,348.42985 C 148.43897,348.42985 146.57272,346.99427 145.71137,345.12802 C 143.84512,340.96483 142.84021,341.10839 140.68684,346.27648 C 139.25126,349.86543 139.25126,351.15745 141.26107,354.17217 C 145.99849,361.49363 157.77024,359.91449 160.6414,351.73168 C 163.22545,344.41023 162.50766,338.38079 156.47822,317.70844 C 147.29051,285.83856 147.29051,271.48276 156.62178,260.85947 C 168.53709,247.36502 193.08551,250.95397 205.00082,268.03737 C 209.30756,274.35392 211.17382,275.7895 214.33209,275.93306 C 217.92104,275.93306 218.20816,275.50239 217.49037,272.63123 C 213.32719,259.42389 198.97139,243.48895 187.19963,239.46933 C 177.43769,236.16749 164.23035,235.4497 156.04755,237.74663 z"
         style="fill:#fced1e;fill-opacity:1;stroke:none"
         id="path6290" />
      <path
         d="M 288.69514,237.1724 C 275.77492,239.9 262.13691,251.38464 254.95901,265.74044 C 250.22159,274.7846 250.36515,275.93306 255.24612,275.93306 C 258.26084,275.7895 260.1271,274.21036 264.14672,268.32449 C 275.4878,251.67176 298.88776,247.50858 311.80798,259.71101 C 321.71348,269.18583 322.28771,284.97721 313.67423,314.69372 C 306.927,337.51944 306.06566,345.55869 309.36749,352.44947 C 311.23374,356.4691 312.95644,357.90468 316.68895,358.62247 C 323.57973,359.91449 328.74782,356.32554 328.74782,350.15255 C 328.74782,345.98936 326.59445,340.3906 325.58954,341.96974 C 325.30243,342.40041 324.44108,343.97955 323.57973,345.55869 C 322.71838,347.13783 320.70857,348.42985 319.27299,348.42985 C 314.24846,348.42985 315.39693,341.68262 323.57973,323.88143 C 335.78216,297.17964 337.79197,289.57107 337.07418,274.06681 C 336.21284,255.83494 330.75763,246.073 317.5503,239.46933 C 311.80798,236.59817 297.30862,235.4497 288.69514,237.1724 z"
         style="fill:#fced1e;fill-opacity:1;stroke:none"
         id="path6292" />
      <path
         d="M 163.65612,258.99322 C 156.1911,264.1613 153.4635,268.89872 152.60215,278.22999 C 151.88436,286.84347 153.4635,295.31339 161.35919,324.02499 C 165.80949,339.95993 166.09661,348.28629 162.22054,354.60284 C 154.89908,366.66172 137.09789,362.64209 137.52856,349.00408 C 137.52856,346.5636 138.67703,343.1182 139.96905,341.10839 C 142.55309,337.08877 142.55309,337.08877 136.66722,339.24214 C 130.06355,341.53907 127.33595,346.70715 128.19729,355.32063 C 128.77153,361.35007 129.77643,363.35988 133.79606,367.09239 C 143.41444,375.99299 159.34938,375.13164 168.39353,365.08258 C 178.01192,354.45929 178.29904,345.41513 170.5469,303.63975 C 167.10151,285.12077 167.8193,278.80422 173.70518,272.77478 C 178.87327,267.75025 184.18491,267.6067 191.21926,272.34411 C 196.67446,276.07662 205.28794,277.22508 205.28794,274.21036 C 205.28794,270.62141 197.82292,263.1564 190.64502,259.56745 C 180.88308,254.68648 170.40335,254.54292 163.65612,258.99322 z"
         style="fill:#fced1e;fill-opacity:1;stroke:none"
         id="path6294" />
      <path
         d="M 277.06694,260.4288 C 272.7602,263.01284 267.73567,267.46314 265.86942,270.19074 L 262.42402,275.21527 L 267.44855,275.64594 C 270.89395,275.93306 274.05222,274.92815 277.78473,272.48767 C 285.10619,267.46314 290.56139,267.6067 295.87304,272.91834 C 299.7491,276.79441 300.03622,277.94287 300.03622,287.84837 C 300.03622,293.73425 298.7442,304.93178 297.0215,312.68391 C 295.44236,320.5796 294.00678,333.06914 293.86323,340.53416 C 293.71967,353.16726 294.00678,354.7464 297.59573,361.06295 C 303.33805,370.68134 311.95153,374.55741 324.15396,372.69115 C 333.19812,371.39913 340.0889,364.79546 341.23737,356.75621 C 342.38583,348.42985 339.51467,342.1133 333.62879,339.67281 C 327.16868,336.94521 326.59445,337.08877 329.32205,341.25195 C 332.48033,345.98936 332.19321,353.88505 328.89138,357.90468 C 326.73801,360.63228 324.7282,361.35007 319.41655,361.35007 C 313.81779,361.35007 312.09509,360.63228 309.36749,357.33045 C 302.47671,349.43476 302.76382,343.97955 312.09509,308.23361 C 317.5503,286.98703 318.26809,279.37845 315.68404,271.48276 C 312.23865,261.29014 304.1994,255.83494 292.5712,255.83494 C 286.39821,255.83494 283.23993,256.83985 277.06694,260.4288 z"
         style="fill:#fced1e;fill-opacity:1;stroke:none"
         id="path6296" />
      <path
         d="M 191.50637,282.24961 C 191.0757,283.39808 190.93214,286.69991 191.21926,289.71463 L 191.64993,295.31339 L 233.71242,295.74406 L 275.63136,296.03118 L 277.06694,292.44223 C 277.78473,290.43242 278.07185,286.98703 277.64117,284.54654 L 276.77982,280.2398 L 234.43021,280.2398 C 199.68918,280.2398 192.0806,280.52692 191.50637,282.24961 z"
         style="fill:#fced1e;fill-opacity:1;stroke:none"
         id="path6298" />
      <path
         d="M 255.38968,300.33792 C 255.24612,300.76859 255.24612,301.48638 255.38968,302.06062 C 259.55286,328.47529 259.98354,335.50963 259.98354,359.91449 C 259.98354,376.2801 259.12219,391.92792 257.97373,398.96227 L 255.96391,410.87758 L 264.14672,410.87758 L 272.32953,410.87758 L 275.4878,400.11073 C 283.67061,372.69115 283.23993,341.68262 274.05222,310.09986 L 271.32462,300.62504 L 263.42893,300.0508 C 259.12219,299.90725 255.38968,299.90725 255.38968,300.33792 z"
         style="fill:#fced1e;fill-opacity:1;stroke:none"
         id="path6300" />
      <path
         d="M 194.66465,307.37226 C 189.20944,325.74769 187.48675,338.52435 187.48675,359.91449 C 187.48675,377.71568 188.06098,383.60156 190.78858,393.65062 C 195.38244,410.87758 195.38244,410.87758 204.57015,410.87758 C 212.32228,410.87758 212.32228,410.87758 211.74805,406.85796 C 208.87689,390.92302 208.1591,381.30463 208.1591,359.77093 C 208.1591,337.95012 210.74314,309.38207 213.32719,302.63485 C 214.04498,300.62504 213.04007,300.33792 205.4315,300.33792 L 196.81802,300.33792 L 194.66465,307.37226 z"
         style="fill:#fced1e;fill-opacity:1;stroke:none"
         id="path6302" />
      <path
         d="M 216.19835,303.63975 C 210.8867,324.74278 209.30756,372.40404 213.18363,395.80399 C 214.33209,402.83833 215.337,409.15488 215.337,409.72912 C 215.337,410.44691 219.21307,410.87758 223.95048,410.87758 L 232.56396,410.87758 L 232.56396,355.60775 L 232.56396,300.33792 L 224.81183,300.33792 C 217.92104,300.33792 217.0597,300.76859 216.19835,303.63975 z"
         style="fill:#fced1e;fill-opacity:1;stroke:none"
         id="path6304" />
      <path
         d="M 235.43512,355.60775 L 235.43512,410.87758 L 244.0486,410.87758 C 252.51852,410.87758 252.51852,410.87758 253.23631,406.14017 C 253.66699,403.69968 254.67189,397.67024 255.53324,393.07639 C 257.83017,379.86905 257.25594,335.50963 254.81545,319.28758 C 251.51362,299.18946 252.23141,300.33792 243.18725,300.33792 L 235.43512,300.33792 L 235.43512,355.60775 z"
         style="fill:#fced1e;fill-opacity:1;stroke:none"
         id="path6306" />
      <path
         d="M 192.22416,416.18923 C 191.36281,417.05057 190.93214,420.63952 191.21926,424.08492 L 191.64993,430.25791 L 233.71242,430.68858 L 275.63136,430.9757 L 277.2105,427.09963 C 278.07185,424.65915 278.2154,421.50087 277.49761,418.77327 L 276.20559,414.46653 L 234.86089,414.46653 C 205.00082,414.46653 193.22907,414.8972 192.22416,416.18923 z"
         style="fill:#fced1e;fill-opacity:1;stroke:none"
         id="path6308" />
      <path
         d="M 195.23888,442.02967 C 192.94195,450.64315 186.05117,466.43453 179.73462,477.48849 C 177.15057,482.08235 175.28432,486.53265 175.42788,487.25044 C 176.00211,488.82957 192.94195,496.43815 197.39225,497.2995 C 199.68918,497.58661 200.69408,496.29459 202.84745,489.83448 C 206.72352,478.06272 210.59959,458.96951 211.60449,446.33641 L 212.6094,435.28244 L 204.85727,435.28244 L 197.10513,435.28244 L 195.23888,442.02967 z"
         style="fill:#fced1e;fill-opacity:1;stroke:none"
         id="path6310" />
      <path
         d="M 214.61921,445.61862 C 213.32719,460.11797 210.02535,478.06272 206.57996,489.26025 C 205.00082,494.42834 203.85236,499.02219 204.28303,499.30931 C 204.85727,500.0271 217.49037,502.18047 226.53452,503.18537 L 232.56396,503.90316 L 232.56396,469.5928 L 232.56396,435.28244 L 224.09404,435.28244 L 215.62412,435.28244 L 214.61921,445.61862 z"
         style="fill:#fced1e;fill-opacity:1;stroke:none"
         id="path6312" />
      <path
         d="M 235.43512,469.73636 L 235.43512,504.19028 L 241.60811,503.32893 C 252.80564,501.74979 263.14181,499.88354 263.71605,499.30931 C 264.14672,499.02219 262.99826,493.99766 261.41912,488.11178 C 257.54305,474.47377 254.09766,455.95479 254.09766,449.49468 C 254.09766,446.62352 253.66699,442.17322 253.23631,439.73274 C 252.37496,435.426 252.23141,435.28244 243.90504,435.28244 L 235.43512,435.28244 L 235.43512,469.73636 z"
         style="fill:#fced1e;fill-opacity:1;stroke:none"
         id="path6314" />
      <path
         d="M 256.39459,444.90083 C 257.39949,456.9597 261.84979,479.78542 265.43874,489.97804 C 268.45346,498.87863 268.3099,498.87863 283.67061,492.41852 L 294.00678,488.11178 L 285.68042,472.17685 C 281.08656,463.27625 275.91848,451.36094 274.05222,445.61862 L 270.75039,435.28244 L 263.14181,435.28244 L 255.6768,435.28244 L 256.39459,444.90083 z"
         style="fill:#fced1e;fill-opacity:1;stroke:none"
         id="path6316" />
    </g>
    <g
       id="g6318"
       transform="matrix(0.7027613,0,0,0.7027613,136.59082,184.29673)"
       style="fill:#fced1e;fill-opacity:1">
      <path
         d="M 225.38606,193.67433 C 217.92104,194.39212 203.85236,197.26328 203.85236,198.12462 C 203.85236,198.41174 206.14929,206.88166 208.87689,216.93072 C 211.60449,226.83622 215.48056,244.06318 217.20325,255.11715 L 220.64865,275.21527 L 226.53452,275.64594 L 232.56396,276.07662 L 232.56396,234.4448 C 232.56396,211.47552 232.13329,192.81298 231.55905,192.95654 C 230.84126,192.95654 228.11366,193.38721 225.38606,193.67433 z"
         style="fill:#fced1e;fill-opacity:1;stroke:none"
         id="path6320" />
      <path
         d="M 235.43512,234.58836 L 235.43512,275.93306 L 241.75167,275.93306 L 247.92467,275.93306 L 248.92957,267.6067 C 250.93938,249.94906 258.11728,218.50986 264.43384,199.27309 C 265.00807,197.55039 253.66699,194.53567 243.76148,193.81788 L 235.43512,193.10009 L 235.43512,234.58836 z"
         style="fill:#fced1e;fill-opacity:1;stroke:none"
         id="path6322" />
      <path
         d="M 185.62049,204.87185 C 179.87817,207.45589 175.14076,210.1835 175.14076,210.61417 C 175.14076,211.1884 177.29413,214.20312 180.02173,217.50495 C 182.60578,220.80679 186.33828,226.40555 188.06098,229.9945 C 189.78368,233.58345 194.80821,239.61289 199.2585,243.63251 C 203.56524,247.50858 209.02045,253.2509 211.31738,256.55273 L 215.62412,262.29505 L 214.61921,256.55273 C 212.32228,242.48405 207.72843,222.09881 204.71371,211.76263 C 202.12966,203.29271 200.69408,200.42155 198.68427,200.27799 C 197.24869,199.99088 191.21926,202.14425 185.62049,204.87185 z"
         style="fill:#fced1e;fill-opacity:1;stroke:none"
         id="path6324" />
      <path
         d="M 263.57249,211.61908 C 260.41421,222.38593 255.6768,243.77607 253.52343,257.27052 L 252.80564,262.29505 L 255.24612,258.7061 C 259.26575,252.82022 271.46818,240.18712 274.05222,239.32577 C 275.34424,239.03865 277.78473,235.4497 279.65098,231.43008 C 281.37368,227.55401 285.10619,221.38102 287.83379,217.79207 C 290.56139,214.20312 292.85832,210.90129 292.85832,210.61417 C 292.85832,209.32215 272.32953,199.84732 269.60192,199.84732 C 267.73567,199.84732 266.30009,202.71848 263.57249,211.61908 z"
         style="fill:#fced1e;fill-opacity:1;stroke:none"
         id="path6326" />
      <path
         d="M 156.04755,237.74663 C 138.1028,242.77116 128.48441,263.44351 132.79115,287.99193 C 134.80096,299.18946 137.09789,305.36245 147.14695,326.75259 C 154.18129,341.96974 155.04264,348.42985 150.01811,348.42985 C 148.43897,348.42985 146.57272,346.99427 145.71137,345.12802 C 143.84512,340.96483 142.84021,341.10839 140.68684,346.27648 C 139.25126,349.86543 139.25126,351.15745 141.26107,354.17217 C 145.99849,361.49363 157.77024,359.91449 160.6414,351.73168 C 163.22545,344.41023 162.50766,338.38079 156.47822,317.70844 C 147.29051,285.83856 147.29051,271.48276 156.62178,260.85947 C 168.53709,247.36502 193.08551,250.95397 205.00082,268.03737 C 209.30756,274.35392 211.17382,275.7895 214.33209,275.93306 C 217.92104,275.93306 218.20816,275.50239 217.49037,272.63123 C 213.32719,259.42389 198.97139,243.48895 187.19963,239.46933 C 177.43769,236.16749 164.23035,235.4497 156.04755,237.74663 z"
         style="fill:#fced1e;fill-opacity:1;stroke:none"
         id="path6328" />
      <path
         d="M 288.69514,237.1724 C 275.77492,239.9 262.13691,251.38464 254.95901,265.74044 C 250.22159,274.7846 250.36515,275.93306 255.24612,275.93306 C 258.26084,275.7895 260.1271,274.21036 264.14672,268.32449 C 275.4878,251.67176 298.88776,247.50858 311.80798,259.71101 C 321.71348,269.18583 322.28771,284.97721 313.67423,314.69372 C 306.927,337.51944 306.06566,345.55869 309.36749,352.44947 C 311.23374,356.4691 312.95644,357.90468 316.68895,358.62247 C 323.57973,359.91449 328.74782,356.32554 328.74782,350.15255 C 328.74782,345.98936 326.59445,340.3906 325.58954,341.96974 C 325.30243,342.40041 324.44108,343.97955 323.57973,345.55869 C 322.71838,347.13783 320.70857,348.42985 319.27299,348.42985 C 314.24846,348.42985 315.39693,341.68262 323.57973,323.88143 C 335.78216,297.17964 337.79197,289.57107 337.07418,274.06681 C 336.21284,255.83494 330.75763,246.073 317.5503,239.46933 C 311.80798,236.59817 297.30862,235.4497 288.69514,237.1724 z"
         style="fill:#fced1e;fill-opacity:1;stroke:none"
         id="path6330" />
      <path
         d="M 163.65612,258.99322 C 156.1911,264.1613 153.4635,268.89872 152.60215,278.22999 C 151.88436,286.84347 153.4635,295.31339 161.35919,324.02499 C 165.80949,339.95993 166.09661,348.28629 162.22054,354.60284 C 154.89908,366.66172 137.09789,362.64209 137.52856,349.00408 C 137.52856,346.5636 138.67703,343.1182 139.96905,341.10839 C 142.55309,337.08877 142.55309,337.08877 136.66722,339.24214 C 130.06355,341.53907 127.33595,346.70715 128.19729,355.32063 C 128.77153,361.35007 129.77643,363.35988 133.79606,367.09239 C 143.41444,375.99299 159.34938,375.13164 168.39353,365.08258 C 178.01192,354.45929 178.29904,345.41513 170.5469,303.63975 C 167.10151,285.12077 167.8193,278.80422 173.70518,272.77478 C 178.87327,267.75025 184.18491,267.6067 191.21926,272.34411 C 196.67446,276.07662 205.28794,277.22508 205.28794,274.21036 C 205.28794,270.62141 197.82292,263.1564 190.64502,259.56745 C 180.88308,254.68648 170.40335,254.54292 163.65612,258.99322 z"
         style="fill:#fced1e;fill-opacity:1;stroke:none"
         id="path6332" />
      <path
         d="M 277.06694,260.4288 C 272.7602,263.01284 267.73567,267.46314 265.86942,270.19074 L 262.42402,275.21527 L 267.44855,275.64594 C 270.89395,275.93306 274.05222,274.92815 277.78473,272.48767 C 285.10619,267.46314 290.56139,267.6067 295.87304,272.91834 C 299.7491,276.79441 300.03622,277.94287 300.03622,287.84837 C 300.03622,293.73425 298.7442,304.93178 297.0215,312.68391 C 295.44236,320.5796 294.00678,333.06914 293.86323,340.53416 C 293.71967,353.16726 294.00678,354.7464 297.59573,361.06295 C 303.33805,370.68134 311.95153,374.55741 324.15396,372.69115 C 333.19812,371.39913 340.0889,364.79546 341.23737,356.75621 C 342.38583,348.42985 339.51467,342.1133 333.62879,339.67281 C 327.16868,336.94521 326.59445,337.08877 329.32205,341.25195 C 332.48033,345.98936 332.19321,353.88505 328.89138,357.90468 C 326.73801,360.63228 324.7282,361.35007 319.41655,361.35007 C 313.81779,361.35007 312.09509,360.63228 309.36749,357.33045 C 302.47671,349.43476 302.76382,343.97955 312.09509,308.23361 C 317.5503,286.98703 318.26809,279.37845 315.68404,271.48276 C 312.23865,261.29014 304.1994,255.83494 292.5712,255.83494 C 286.39821,255.83494 283.23993,256.83985 277.06694,260.4288 z"
         style="fill:#fced1e;fill-opacity:1;stroke:none"
         id="path6334" />
      <path
         d="M 191.50637,282.24961 C 191.0757,283.39808 190.93214,286.69991 191.21926,289.71463 L 191.64993,295.31339 L 233.71242,295.74406 L 275.63136,296.03118 L 277.06694,292.44223 C 277.78473,290.43242 278.07185,286.98703 277.64117,284.54654 L 276.77982,280.2398 L 234.43021,280.2398 C 199.68918,280.2398 192.0806,280.52692 191.50637,282.24961 z"
         style="fill:#fced1e;fill-opacity:1;stroke:none"
         id="path6336" />
      <path
         d="M 255.38968,300.33792 C 255.24612,300.76859 255.24612,301.48638 255.38968,302.06062 C 259.55286,328.47529 259.98354,335.50963 259.98354,359.91449 C 259.98354,376.2801 259.12219,391.92792 257.97373,398.96227 L 255.96391,410.87758 L 264.14672,410.87758 L 272.32953,410.87758 L 275.4878,400.11073 C 283.67061,372.69115 283.23993,341.68262 274.05222,310.09986 L 271.32462,300.62504 L 263.42893,300.0508 C 259.12219,299.90725 255.38968,299.90725 255.38968,300.33792 z"
         style="fill:#fced1e;fill-opacity:1;stroke:none"
         id="path6338" />
      <path
         d="M 194.66465,307.37226 C 189.20944,325.74769 187.48675,338.52435 187.48675,359.91449 C 187.48675,377.71568 188.06098,383.60156 190.78858,393.65062 C 195.38244,410.87758 195.38244,410.87758 204.57015,410.87758 C 212.32228,410.87758 212.32228,410.87758 211.74805,406.85796 C 208.87689,390.92302 208.1591,381.30463 208.1591,359.77093 C 208.1591,337.95012 210.74314,309.38207 213.32719,302.63485 C 214.04498,300.62504 213.04007,300.33792 205.4315,300.33792 L 196.81802,300.33792 L 194.66465,307.37226 z"
         style="fill:#fced1e;fill-opacity:1;stroke:none"
         id="path6340" />
      <path
         d="M 216.19835,303.63975 C 210.8867,324.74278 209.30756,372.40404 213.18363,395.80399 C 214.33209,402.83833 215.337,409.15488 215.337,409.72912 C 215.337,410.44691 219.21307,410.87758 223.95048,410.87758 L 232.56396,410.87758 L 232.56396,355.60775 L 232.56396,300.33792 L 224.81183,300.33792 C 217.92104,300.33792 217.0597,300.76859 216.19835,303.63975 z"
         style="fill:#fced1e;fill-opacity:1;stroke:none"
         id="path6342" />
      <path
         d="M 235.43512,355.60775 L 235.43512,410.87758 L 244.0486,410.87758 C 252.51852,410.87758 252.51852,410.87758 253.23631,406.14017 C 253.66699,403.69968 254.67189,397.67024 255.53324,393.07639 C 257.83017,379.86905 257.25594,335.50963 254.81545,319.28758 C 251.51362,299.18946 252.23141,300.33792 243.18725,300.33792 L 235.43512,300.33792 L 235.43512,355.60775 z"
         style="fill:#fced1e;fill-opacity:1;stroke:none"
         id="path6344" />
      <path
         d="M 192.22416,416.18923 C 191.36281,417.05057 190.93214,420.63952 191.21926,424.08492 L 191.64993,430.25791 L 233.71242,430.68858 L 275.63136,430.9757 L 277.2105,427.09963 C 278.07185,424.65915 278.2154,421.50087 277.49761,418.77327 L 276.20559,414.46653 L 234.86089,414.46653 C 205.00082,414.46653 193.22907,414.8972 192.22416,416.18923 z"
         style="fill:#fced1e;fill-opacity:1;stroke:none"
         id="path6346" />
      <path
         d="M 195.23888,442.02967 C 192.94195,450.64315 186.05117,466.43453 179.73462,477.48849 C 177.15057,482.08235 175.28432,486.53265 175.42788,487.25044 C 176.00211,488.82957 192.94195,496.43815 197.39225,497.2995 C 199.68918,497.58661 200.69408,496.29459 202.84745,489.83448 C 206.72352,478.06272 210.59959,458.96951 211.60449,446.33641 L 212.6094,435.28244 L 204.85727,435.28244 L 197.10513,435.28244 L 195.23888,442.02967 z"
         style="fill:#fced1e;fill-opacity:1;stroke:none"
         id="path6348" />
      <path
         d="M 214.61921,445.61862 C 213.32719,460.11797 210.02535,478.06272 206.57996,489.26025 C 205.00082,494.42834 203.85236,499.02219 204.28303,499.30931 C 204.85727,500.0271 217.49037,502.18047 226.53452,503.18537 L 232.56396,503.90316 L 232.56396,469.5928 L 232.56396,435.28244 L 224.09404,435.28244 L 215.62412,435.28244 L 214.61921,445.61862 z"
         style="fill:#fced1e;fill-opacity:1;stroke:none"
         id="path6350" />
      <path
         d="M 235.43512,469.73636 L 235.43512,504.19028 L 241.60811,503.32893 C 252.80564,501.74979 263.14181,499.88354 263.71605,499.30931 C 264.14672,499.02219 262.99826,493.99766 261.41912,488.11178 C 257.54305,474.47377 254.09766,455.95479 254.09766,449.49468 C 254.09766,446.62352 253.66699,442.17322 253.23631,439.73274 C 252.37496,435.426 252.23141,435.28244 243.90504,435.28244 L 235.43512,435.28244 L 235.43512,469.73636 z"
         style="fill:#fced1e;fill-opacity:1;stroke:none"
         id="path6352" />
      <path
         d="M 256.39459,444.90083 C 257.39949,456.9597 261.84979,479.78542 265.43874,489.97804 C 268.45346,498.87863 268.3099,498.87863 283.67061,492.41852 L 294.00678,488.11178 L 285.68042,472.17685 C 281.08656,463.27625 275.91848,451.36094 274.05222,445.61862 L 270.75039,435.28244 L 263.14181,435.28244 L 255.6768,435.28244 L 256.39459,444.90083 z"
         style="fill:#fced1e;fill-opacity:1;stroke:none"
         id="path6354" />
    </g>
  </g>
  <g
     inkscape:groupmode="layer"
     id="layer2"
     inkscape:label="Reflet final"
     sodipodi:insensitive="true">
    <path
       sodipodi:nodetypes="cccccc"
       d="M 300.00001,658.5 C 300.00001,658.5 598.50001,546.17969 598.50001,260.72817 C 598.50001,-24.723334 598.50001,2.1764865 598.50001,2.1764865 L 1.5,2.1764865 L 1.5,260.72817 C 1.5,546.17969 300.00001,658.5 300.00001,658.5 z "
       style="opacity:1;fill:url(#radialGradient3163);fill-opacity:1;fill-rule:evenodd;stroke:none;stroke-width:1px;stroke-linecap:butt;stroke-linejoin:miter;stroke-opacity:1"
       id="path2875"
       inkscape:export-xdpi="144"
       inkscape:export-ydpi="144" />
  </g>
  <g
     inkscape:groupmode="layer"
     id="layer1"
     inkscape:label="Contour final"
     sodipodi:insensitive="true">
    <path
       sodipodi:nodetypes="cccccc"
       d="M 299.99999,658.50028 C 299.99999,658.50028 1.5,546.17992 1.5,260.72828 C 1.5,-24.723336 1.5,2.1764957 1.5,2.1764957 L 598.49999,2.1764957 L 598.49999,260.72828 C 598.49999,546.17992 299.99999,658.50028 299.99999,658.50028 z "
       style="opacity:1;fill:none;fill-opacity:1;fill-rule:evenodd;stroke:#000000;stroke-width:3.00000048;stroke-linecap:butt;stroke-linejoin:miter;stroke-miterlimit:4;stroke-dasharray:none;stroke-opacity:1"
       id="path1411"
       inkscape:export-xdpi="144"
       inkscape:export-ydpi="144" />
  </g>
</svg>
